<?xml version="1.0" encoding="utf-8"?>
<!-- Generator: Adobe Illustrator 28.3.0, SVG Export Plug-In . SVG Version: 6.00 Build 0)  -->
<svg version="1.1" id="Layer_1" xmlns="http://www.w3.org/2000/svg" xmlns:xlink="http://www.w3.org/1999/xlink" x="0px" y="0px"
	 viewBox="0 0 512 512" style="enable-background:new 0 0 512 512;" xml:space="preserve" aria-hidden="true" role="img" >
<style type="text/css">
	.st0{fill:url(#SVGID_1_);}
	.st1{fill:url(#SVGID_00000016765293935455311700000016309167510269565363_);}
	.st2{fill:url(#SVGID_00000167386156248732939720000010096498757425057190_);}
</style>
<g>
	<g>
		<path d="M64.16,207.65c1.1-7.5,1.91-15.06,3.35-22.49c9.59-49.64,35.46-89.03,76.36-118.45c36.01-25.9,76.66-37.25,120.9-35.54
			c87.75,3.39,162.39,66.8,179.49,152.67c8.51,42.71,1.43,83.52-16.73,122.72c-7.9,17.06-17.56,33.09-28.52,48.35
			c-6.45,8.99-16.99,11.11-25.37,5.14c-8.21-5.85-9.78-16.35-3.46-25.27c15.59-22,28.41-45.35,36.01-71.38
			c25.73-88.16-31.03-178.98-121.75-194.67c-72.6-12.55-142.43,23.77-172,90.01c-17.9,40.11-16.94,80.73-1.08,121.25
			c13.45,34.35,34.83,63.54,59.8,90.3c25.4,27.24,53.87,50.91,85.14,72.35c10.69-8.03,21.59-15.94,32.17-24.26
			c7.95-6.25,15.55-12.95,23.2-19.56c8.66-7.49,19.3-7.31,26.21,0.6c6.7,7.67,5.56,18.26-2.79,25.71
			c-19.5,17.39-39.96,33.57-61.78,47.98c-4.37,2.88-9.06,5.27-13.6,7.89c-2.35,0-4.7,0-7.05,0c-2.5-1.2-5.17-2.13-7.47-3.63
			c-50.48-33-95.29-72.17-131.1-120.96c-21.87-29.8-38.47-62.18-45.95-98.67c-1.72-8.41-2.68-16.98-3.98-25.47
			C64.16,224.06,64.16,215.86,64.16,207.65z"/>
		<g>
			<path d="M178.21,305.56c-1.54,0-2.8-0.52-3.77-1.57c-0.98-1.05-1.47-2.27-1.47-3.67V164.03c0-1.54,0.49-2.8,1.47-3.77
				c0.98-0.98,2.23-1.47,3.77-1.47h28.1c1.54,0,2.83,0.49,3.88,1.47c1.05,0.98,1.57,2.24,1.57,3.77v136.29
				c0,1.4-0.52,2.62-1.57,3.67c-1.05,1.05-2.34,1.57-3.88,1.57H178.21z"/>
			<path d="M246.14,305.56c-1.54,0-2.8-0.52-3.77-1.57c-0.98-1.05-1.47-2.27-1.47-3.67V164.03c0-1.54,0.49-2.8,1.47-3.77
				c0.98-0.98,2.23-1.47,3.77-1.47h58.71c11.6,0,21.7,1.78,30.3,5.35c8.6,3.56,15.31,8.91,20.13,16.04
				c4.82,7.13,7.23,16.15,7.23,27.05c0,10.77-2.41,19.64-7.23,26.63c-4.82,6.99-11.53,12.16-20.13,15.51
				c-8.6,3.36-18.7,5.03-30.3,5.03H279.9v45.92c0,1.4-0.52,2.62-1.57,3.67c-1.05,1.05-2.34,1.57-3.88,1.57H246.14z M279.27,225.47
				h24.53c6.01,0,10.8-1.54,14.36-4.61c3.57-3.07,5.35-7.76,5.35-14.05c0-5.31-1.54-9.78-4.61-13.42c-3.08-3.63-8.11-5.45-15.1-5.45
				h-24.53V225.47z"/>
		</g>
	</g>
	<g>
		<linearGradient id="SVGID_1_" gradientUnits="userSpaceOnUse" x1="394.3921" y1="89.0679" x2="117.0223" y2="366.4377">
			<stop  offset="5.618000e-03" style="stop-color:#5F86F2"/>
			<stop  offset="1" style="stop-color:#443D97"/>
		</linearGradient>
		<path class="st0" d="M64.16,207.65c1.1-7.5,1.91-15.06,3.35-22.49c9.59-49.64,35.46-89.03,76.36-118.45
			c36.01-25.9,76.66-37.25,120.9-35.54c87.75,3.39,162.39,66.8,179.49,152.67c8.51,42.71,1.43,83.52-16.73,122.72
			c-7.9,17.06-17.56,33.09-28.52,48.35c-6.45,8.99-16.99,11.11-25.37,5.14c-8.21-5.85-9.78-16.35-3.46-25.27
			c15.59-22,28.41-45.35,36.01-71.38c25.73-88.16-31.03-178.98-121.75-194.67c-72.6-12.55-142.43,23.77-172,90.01
			c-17.9,40.11-16.94,80.73-1.08,121.25c13.45,34.35,34.83,63.54,59.8,90.3c25.4,27.24,53.87,50.91,85.14,72.35
			c10.69-8.03,21.59-15.94,32.17-24.26c7.95-6.25,15.55-12.95,23.2-19.56c8.66-7.49,19.3-7.31,26.21,0.6
			c6.7,7.67,5.56,18.26-2.79,25.71c-19.5,17.39-39.96,33.57-61.78,47.98c-4.37,2.88-9.06,5.27-13.6,7.89c-2.35,0-4.7,0-7.05,0
			c-2.5-1.2-5.17-2.13-7.47-3.63c-50.48-33-95.29-72.17-131.1-120.96c-21.87-29.8-38.47-62.18-45.95-98.67
			c-1.72-8.41-2.68-16.98-3.98-25.47C64.16,224.06,64.16,215.86,64.16,207.65z"/>
		<g>
			
				<linearGradient id="SVGID_00000041983645574632088380000007923051997294576532_" gradientUnits="userSpaceOnUse" x1="394.3921" y1="89.0679" x2="117.0223" y2="366.4377">
				<stop  offset="5.618000e-03" style="stop-color:#5F86F2"/>
				<stop  offset="1" style="stop-color:#443D97"/>
			</linearGradient>
			<path style="fill:url(#SVGID_00000041983645574632088380000007923051997294576532_);" d="M178.21,305.56
				c-1.54,0-2.8-0.52-3.77-1.57c-0.98-1.05-1.47-2.27-1.47-3.67V164.03c0-1.54,0.49-2.8,1.47-3.77c0.98-0.98,2.23-1.47,3.77-1.47
				h28.1c1.54,0,2.83,0.49,3.88,1.47c1.05,0.98,1.57,2.24,1.57,3.77v136.29c0,1.4-0.52,2.62-1.57,3.67
				c-1.05,1.05-2.34,1.57-3.88,1.57H178.21z"/>
			
				<linearGradient id="SVGID_00000029046149166536015620000001813354765162901145_" gradientUnits="userSpaceOnUse" x1="394.3921" y1="89.0679" x2="117.0223" y2="366.4377">
				<stop  offset="5.618000e-03" style="stop-color:#5F86F2"/>
				<stop  offset="1" style="stop-color:#443D97"/>
			</linearGradient>
			<path style="fill:url(#SVGID_00000029046149166536015620000001813354765162901145_);" d="M246.14,305.56
				c-1.54,0-2.8-0.52-3.77-1.57c-0.98-1.05-1.47-2.27-1.47-3.67V164.03c0-1.54,0.49-2.8,1.47-3.77c0.98-0.98,2.23-1.47,3.77-1.47
				h58.71c11.6,0,21.7,1.78,30.3,5.35c8.6,3.56,15.31,8.91,20.13,16.04c4.82,7.13,7.23,16.15,7.23,27.05
				c0,10.77-2.41,19.64-7.23,26.63c-4.82,6.99-11.53,12.16-20.13,15.51c-8.6,3.36-18.7,5.03-30.3,5.03H279.9v45.92
				c0,1.4-0.52,2.62-1.57,3.67c-1.05,1.05-2.34,1.57-3.88,1.57H246.14z M279.27,225.47h24.53c6.01,0,10.8-1.54,14.36-4.61
				c3.57-3.07,5.35-7.76,5.35-14.05c0-5.31-1.54-9.78-4.61-13.42c-3.08-3.63-8.11-5.45-15.1-5.45h-24.53V225.47z"/>
		</g>
	</g>
</g>
</svg>
